<?xml version="1.0" encoding="utf-8"?>
<!-- Generator: Adobe Illustrator 19.1.0, SVG Export Plug-In . SVG Version: 6.00 Build 0)  -->
<svg version="1.1" id="Layer_1" xmlns="http://www.w3.org/2000/svg" xmlns:xlink="http://www.w3.org/1999/xlink" x="0px" y="0px"
	 viewBox="-105 147 400 500" style="enable-background:new -105 147 400 500;" xml:space="preserve">
<style type="text/css">
	.st0{fill:#FFFFFF;}
</style>
<g id="Layer_1_1_">
	<g transform="translate(0.000000,747.000000) scale(0.100000,-0.100000)">
		<path class="st0" d="M2259.1,5964.9c-524.9-134.5-1029.3-351.8-1394.2-602c-393.6-269-687.3-560.2-922.6-914.5l-59.9-90.2
			l9.9-143.5c12.2-195.1,34.4-360.1,79.6-593.7c10.6-57.4,19.7-106.7,19.7-110.8c0-3.4-11.5,16.5-25.3,43.4
			c-108.3,212.5-236.2,440.4-252.5,451c-11.5,6.6-28.7-27.1-68.9-131.1c-106.7-282.1-163.2-569.9-164.1-844.6
			c-1.6-397.7,103.3-678.2,298.4-802.8l22.2-14l18.1,76.2c30.3,123,71.4,263.2,119.8,406.7c278.8,829.2,716,1639.5,1183.5,2195.4
			c128.8,153.3,314,324,351.1,324c28.7,0,6.6-38.6-108.3-188.6c-337.1-439.5-530.6-745.6-753.7-1189.2
			C377,3370,210.6,2927.1,65.4,2385c-18.8-69.6-39.3-145.1-45.9-167.3L8,2177.5l55.8,5c236.2,22.2,488.8,229.7,753.7,620.8
			c131.1,194.4,214.1,343.6,478.1,864.5l174.7,343.6l-118-5.7c-64.9-3.4-167.3-12.2-226.3-20.6c-59.9-8.2-109-13.1-109-12.2
			c0,1.6,46.8,33.7,104.9,70.5c162.3,105.8,425.7,283,492.9,332.1l59.9,45.2l131.1,267.4c179.5,367.4,329.6,680.7,438.8,916.1
			c65.6,142,174.7,387.9,174.7,393.6C2419.1,6005.1,2399.4,6001,2259.1,5964.9z"/>
		<path class="st0" d="M1305.2,5036.6c-123.9-134.5-286.2-338-399.5-502.8c-26.2-38.6-63.1-91.8-82.1-118.9
			C590.9,4075.4,337.4,3594,151.2,3136.4c-242.8-598.7-353.6-1021-422.3-1616.4c-15.6-137.7-32.8-520.9-23-520.9
			c4.1,0,25.3,104.2,72.1,360.8c100.1,538,296.1,1276.2,458.5,1723.8C381.6,3484,576,3894.9,809.7,4296
			c145.1,249.3,382.1,588,529,757.8c35.3,40.9,50.9,62.4,43.4,62.4C1380.7,5116,1345.5,5080,1305.2,5036.6z"/>
	</g>
</g>
</svg>
