<?xml version="1.0" encoding="utf-8"?>
<!-- Generator: Adobe Illustrator 19.1.0, SVG Export Plug-In . SVG Version: 6.00 Build 0)  -->
<svg version="1.1" id="Layer_1" xmlns="http://www.w3.org/2000/svg" xmlns:xlink="http://www.w3.org/1999/xlink" x="0px" y="0px"
	 viewBox="0 0 612 792" style="enable-background:new 0 0 612 792;" xml:space="preserve">
<style type="text/css">
	.st0{fill:#4D505E;}
</style>
<g id="Layer_1_1_">
	<g transform="translate(0.000000,747.000000) scale(0.100000,-0.100000)">
		<path class="st0" d="M5046.1,7249.7c-796.4-204.1-1561.6-533.7-2115.2-913.4c-597.2-408.2-1042.7-849.9-1399.8-1387.4l-90.9-136.9
			l15.1-217.8c18.6-296,52.2-546.4,120.7-900.7c16.1-87.1,29.8-161.9,29.8-168c0-5.1-17.5,25-38.4,65.9
			c-164.3,322.4-358.4,668.2-383.1,684.3c-17.5,9.9-43.6-41.1-104.6-199c-161.9-428-247.6-864.7-249-1281.5
			c-2.4-603.4,156.8-1029,452.8-1218l33.6-21.2l27.4,115.6c46,186.6,108.4,399.3,181.8,617.1
			C1949.2,3546.7,2612.5,4776,3321.8,5619.5c195.5,232.6,476.4,491.5,532.6,491.5c43.6,0,9.9-58.6-164.3-286.1
			c-511.4-666.8-805-1131.2-1143.5-1804.2c-356-707.9-608.5-1379.9-828.7-2202.4c-28.5-105.7-59.7-220.2-69.6-253.8l-17.5-61
			l84.7,7.5c358.4,33.6,741.6,348.5,1143.5,941.9c199,295,324.8,521.3,725.4,1311.6l265.1,521.3l-179.1-8.6
			c-98.4-5.1-253.8-18.6-343.4-31.2c-90.9-12.4-165.4-19.9-165.4-18.6c0,2.4,71,51.1,159.2,107c246.3,160.5,645.8,429.4,747.7,503.9
			l90.9,68.6l199,405.7c272.4,557.4,500.1,1032.7,665.7,1389.8c99.5,215.4,265.1,588.6,265.1,597.2
			C5288.9,7310.7,5259,7304.5,5046.1,7249.7z"/>
		<path class="st0" d="M3599,5841.3c-187.9-204.1-434.2-512.7-606-762.8c-39.8-58.6-95.7-139.3-124.5-180.4
			c-353.3-515.2-737.8-1245.4-1020.4-1939.7c-368.4-908.3-536.4-1549-640.7-2452.4c-23.7-208.9-49.7-790.2-35-790.2
			c6.2,0,38.4,158.1,109.4,547.4c151.9,816.3,449.3,1936.2,695.6,2615.3c220.2,607.1,515.2,1230.6,869.8,1839.1
			c220.2,378.3,579.7,892.1,802.6,1149.7c53.5,62.1,77.2,94.6,65.9,94.6C3713.5,5961.7,3660,5907.2,3599,5841.3z"/>
	</g>
</g>
</svg>
